<svg xmlns="http://www.w3.org/2000/svg" xmlns:xlink="http://www.w3.org/1999/xlink" width="121.868" height="121.868" viewBox="0 0 121.868 121.868"><defs><style>.a{fill:none;}.a,.b{stroke:#fff;stroke-width:5px;}.b{fill:url(#a);}</style><linearGradient id="a" x1="0.5" y1="0.256" x2="0.5" y2="0.747" gradientUnits="objectBoundingBox"><stop offset="0" stop-color="#003cd5"/><stop offset="1" stop-color="#ffb657"/></linearGradient></defs><g transform="translate(2.5 2.5)"><path class="a" d="M0,0H116.868V116.868H0Z"/><path class="b" d="M98.39,89.651h9.739V99.39H1V89.651h9.739V6.87A4.87,4.87,0,0,1,15.609,2H93.521a4.87,4.87,0,0,1,4.87,4.87Zm-9.739,0V11.739H20.478V89.651ZM35.087,45.826H49.7v9.739H35.087Zm0-19.478H49.7v9.739H35.087Zm0,38.956H49.7v9.739H35.087Zm24.348,0H74.043v9.739H59.434Zm0-19.478H74.043v9.739H59.434Zm0-19.478H74.043v9.739H59.434Z" transform="translate(3.87 7.739)"/></g></svg>